<?xml version="1.0" encoding="UTF-8"?> <svg xmlns="http://www.w3.org/2000/svg" viewBox="0 0 355.71 103.07"><defs><style>.cls-1{fill:#2f4743;}.cls-2{fill:#c18465;}</style></defs><title>Appara Logo Full Colour</title><g id="Layer_2" data-name="Layer 2"><g id="Layer_1-2" data-name="Layer 1"><polygon class="cls-1" points="10.93 57.64 35.42 57.72 23.07 45.91 10.93 57.64"></polygon><polygon class="cls-1" points="43.52 88.14 43.52 45.31 29 45.31 38.7 54.68 42.75 58.55 42.73 58.57 42.75 58.59 42.2 59.05 38.8 62.22 7.57 62.33 3.38 58.72 3.54 58.57 3.38 58.42 6.11 55.81 6.02 55.72 21.57 40.82 21.63 40.82 26.34 40.82 26.43 40.82 26.43 40.85 28 40.85 28.06 40.85 43.44 40.85 43.52 40.85 43.52 0 0 25.13 0 77.96 43.5 103.07 43.52 88.14"></polygon><polygon class="cls-1" points="47.99 0 47.99 40.85 48.07 40.85 63.45 40.85 63.51 40.85 65.08 40.85 65.08 40.82 65.16 40.82 69.88 40.82 69.93 40.82 85.49 55.72 85.4 55.81 88.12 58.42 87.97 58.57 88.12 58.72 83.94 62.33 52.71 62.22 49.3 59.05 48.76 58.59 48.78 58.57 48.76 58.55 52.81 54.68 62.51 45.31 47.99 45.31 47.99 88.14 48.01 103.07 91.51 77.96 91.51 25.13 47.99 0"></polygon><polygon class="cls-1" points="68.44 45.91 56.09 57.72 80.58 57.64 68.44 45.91"></polygon><path class="cls-2" d="M151.84,57.23h-18l-2.59,6.62c-3.43,9-2.14,11.58,4.79,12.72v1H118.27v-1c5-1.37,7.76-4.34,11-12.56l16.22-41h3.19L165.7,69.26c1.9,5.18,3,6.47,8.9,7.31v1h-25v-1c7.23-.38,8.3-2,6.78-6.24Zm-.53-1.52-7.92-22.46h-.3l-8.68,22.46Z"></path><path class="cls-2" d="M171.63,91.18c4.42-.07,5.41-.53,5.41-2.89V47.56c0-2.28-1.07-3.73-5.41-3.8v-.92l13.25-.53v5c3.19-3.2,6.92-5.49,11.57-5.49,8.83,0,13.85,7.46,13.85,17.67,0,10.5-6.16,18.65-16.13,18.65A18,18,0,0,1,185,76V88.29c0,2.36,1.45,2.82,7.23,2.89v.92H171.63ZM201.7,60c0-8.22-3-15-9.06-15-2.89,0-5.25,1.37-7.61,3.8V70.93c1.6,4.19,4.41,5.79,7.84,5.79C198.73,76.72,201.7,70.93,201.7,60Z"></path><path class="cls-1" d="M211.67,91.18c4.42-.07,5.41-.53,5.41-2.89V47.56c0-2.28-1.07-3.73-5.41-3.8v-.92l13.25-.53v5c3.2-3.2,6.92-5.49,11.57-5.49,8.83,0,13.85,7.46,13.85,17.67,0,10.5-6.16,18.65-16.13,18.65A18,18,0,0,1,225.07,76V88.29c0,2.36,1.45,2.82,7.23,2.89v.92H211.67ZM241.74,60c0-8.22-3-15-9.06-15-2.89,0-5.25,1.37-7.61,3.8V70.93c1.6,4.19,4.42,5.79,7.84,5.79C238.77,76.72,241.74,70.93,241.74,60Z"></path><path class="cls-1" d="M254.38,69.56a8.53,8.53,0,0,1,4.56-7.68c5.64-3.12,14.54-3.58,16.3-4.42V52c0-5.71-1.68-8.45-6.17-8.45a9.08,9.08,0,0,0-6.32,2.21,5.7,5.7,0,0,1,2.06,4.11,4.18,4.18,0,0,1-4.57,4.49,4.3,4.3,0,0,1-4.42-4.49c0-4.49,5.56-7.77,14.16-7.77s13.17,3.35,13.17,11.19V71c0,3.73,1.37,5.33,5.79,3.5l.3.76c-2.66,1.68-4.64,2.59-7.31,2.59-4.26,0-5.86-1.75-6.31-5.86h-.31c-2.89,3.35-6.47,6-11.19,6C257.35,78,254.38,73.83,254.38,69.56Zm20.86.69V58.91c-10.13,2-12.34,4.18-12.34,9.36,0,3.65,1.75,6.24,5.64,6.24C271.28,74.51,273.71,72.38,275.24,70.25Z"></path><path class="cls-1" d="M289.79,76.64c4.33-.07,5.4-.6,5.4-2.89V47.56c0-2.28-1.07-3.73-5.4-3.8v-.92L303,42.31V50c2.67-5,6.4-8,10.28-8,4.19,0,6.09,2.59,6.09,5.55a4.72,4.72,0,1,1-9.44.23,7.61,7.61,0,0,1,.46-2.36c-3,.38-5,2.59-7.24,6.32v22c0,2.29,1.45,2.74,6.63,2.89v.92h-20Z"></path><path class="cls-1" d="M320.84,69.56a8.52,8.52,0,0,1,4.57-7.68C331,58.76,340,58.3,341.7,57.46V52c0-5.71-1.67-8.45-6.16-8.45a9.08,9.08,0,0,0-6.32,2.21,5.69,5.69,0,0,1,2,4.11,4.18,4.18,0,0,1-4.56,4.49,4.3,4.3,0,0,1-4.42-4.49c0-4.49,5.56-7.77,14.16-7.77s13.17,3.35,13.17,11.19V71c0,3.73,1.37,5.33,5.79,3.5l.3.76c-2.67,1.68-4.64,2.59-7.31,2.59-4.26,0-5.86-1.75-6.32-5.86h-.3c-2.89,3.35-6.47,6-11.19,6C323.81,78,320.84,73.83,320.84,69.56Zm20.86.69V58.91c-10.12,2-12.33,4.18-12.33,9.36,0,3.65,1.75,6.24,5.63,6.24C337.74,74.51,340.18,72.38,341.7,70.25Z"></path></g></g></svg> 