<?xml version="1.0" standalone="no"?>
<!DOCTYPE svg PUBLIC "-//W3C//DTD SVG 20010904//EN"
 "http://www.w3.org/TR/2001/REC-SVG-20010904/DTD/svg10.dtd">
<svg version="1.0" xmlns="http://www.w3.org/2000/svg"
 width="260.000000pt" height="260.000000pt" viewBox="0 0 260.000000 260.000000"
 preserveAspectRatio="xMidYMid meet">
<metadata>
Created by potrace 1.11, written by Peter Selinger 2001-2013
</metadata>
<g transform="translate(0.000000,260.000000) scale(0.100000,-0.100000)"
fill="#000000" stroke="none">
<path d="M170 2587 c-50 -16 -143 -112 -158 -163 -17 -60 -17 -2188 0 -2248
16 -55 109 -148 164 -164 60 -17 2188 -17 2248 0 55 16 148 109 164 164 17 60
17 2188 0 2248 -16 55 -109 148 -164 164 -56 16 -2201 15 -2254 -1z m570 -867
l0 -290 145 0 145 0 0 290 0 290 125 0 125 0 0 -700 0 -700 -125 0 -125 0 -2
317 -3 318 -140 0 -140 0 -3 -317 -2 -318 -125 0 -125 0 0 700 0 700 125 0
125 0 0 -290z m1396 238 c-7 -55 -76 -976 -76 -1003 0 -11 -11 -15 -40 -15
-22 0 -40 1 -41 3 -1 1 -18 242 -38 535 l-37 532 119 0 118 0 -5 -52z m-406
-88 l0 -100 -120 0 -120 0 0 100 0 100 120 0 120 0 0 -100z m-10 -760 l0 -500
-115 0 -115 0 0 500 0 500 115 0 115 0 0 -500z m410 -385 l0 -115 -115 0 -115
0 0 115 0 115 115 0 115 0 0 -115z"/>
</g>
</svg>
